<svg xmlns="http://www.w3.org/2000/svg" viewBox="0 0 256 256">
  <!-- 窗口外框 -->
  <rect x="16" y="24" width="224" height="208" rx="16" ry="16" fill="#1e2330"/>

  <!-- 标题栏 -->
  <rect x="16" y="24" width="224" height="36" rx="16" ry="16" fill="#2a3045"/>
  <rect x="16" y="42" width="224" height="18" fill="#2a3045"/>

  <!-- 标题栏按钮 -->
  <circle cx="44" cy="42" r="7" fill="#ff5f57"/>
  <circle cx="68" cy="42" r="7" fill="#febc2e"/>
  <circle cx="92" cy="42" r="7" fill="#28c840"/>

  <!-- 日志行区域背景 -->
  <rect x="28" y="72" width="200" height="148" rx="6" ry="6" fill="#141820"/>

  <!-- ERROR 行（红） -->
  <rect x="36" y="84" width="8" height="8" rx="2" fill="#ff5050"/>
  <rect x="52" y="85" width="96" height="6" rx="3" fill="#ff5050" opacity="0.85"/>
  <rect x="156" y="85" width="56" height="6" rx="3" fill="#ff5050" opacity="0.5"/>

  <!-- INFO 行（绿） -->
  <rect x="36" y="102" width="8" height="8" rx="2" fill="#28c840"/>
  <rect x="52" y="103" width="80" height="6" rx="3" fill="#28c840" opacity="0.85"/>
  <rect x="140" y="103" width="72" height="6" rx="3" fill="#28c840" opacity="0.5"/>

  <!-- NOTICE 行（橙黄） -->
  <rect x="36" y="120" width="8" height="8" rx="2" fill="#febc2e"/>
  <rect x="52" y="121" width="104" height="6" rx="3" fill="#febc2e" opacity="0.85"/>
  <rect x="164" y="121" width="44" height="6" rx="3" fill="#febc2e" opacity="0.5"/>

  <!-- INFO 行 -->
  <rect x="36" y="138" width="8" height="8" rx="2" fill="#28c840"/>
  <rect x="52" y="139" width="72" height="6" rx="3" fill="#28c840" opacity="0.85"/>
  <rect x="132" y="139" width="80" height="6" rx="3" fill="#28c840" opacity="0.5"/>

  <!-- ERROR 行 -->
  <rect x="36" y="156" width="8" height="8" rx="2" fill="#ff5050"/>
  <rect x="52" y="157" width="88" height="6" rx="3" fill="#ff5050" opacity="0.85"/>
  <rect x="148" y="157" width="60" height="6" rx="3" fill="#ff5050" opacity="0.5"/>

  <!-- NOTICE 行 -->
  <rect x="36" y="174" width="8" height="8" rx="2" fill="#febc2e"/>
  <rect x="52" y="175" width="100" height="6" rx="3" fill="#febc2e" opacity="0.85"/>
  <rect x="160" y="175" width="48" height="6" rx="3" fill="#febc2e" opacity="0.5"/>

  <!-- INFO 行 -->
  <rect x="36" y="192" width="8" height="8" rx="2" fill="#28c840"/>
  <rect x="52" y="193" width="76" height="6" rx="3" fill="#28c840" opacity="0.85"/>
  <rect x="136" y="193" width="68" height="6" rx="3" fill="#28c840" opacity="0.5"/>

  <!-- 滚动条 -->
  <rect x="220" y="72" width="6" height="148" rx="3" fill="#2a3045"/>
  <rect x="220" y="160" width="6" height="40" rx="3" fill="#4a90d9"/>
</svg>
